<svg width="34" height="26" viewBox="0 0 34 26" fill="none" xmlns="http://www.w3.org/2000/svg">
<path d="M20.1369 26C22.8983 26 25.1842 23.7425 24.6732 21.0288C24.3528 19.3274 23.8679 17.6594 23.2235 16.0502C21.9602 12.8958 20.1087 10.0295 17.7745 7.61523C15.4403 5.20091 12.6692 3.28576 9.61949 1.97914C8.11383 1.33407 6.55481 0.843552 4.96489 0.51221C2.26154 -0.0511681 0 2.23859 0 5.00001V21C0 23.7614 2.23858 26 5 26H20.1369Z" fill="#615DFF"/>
<path d="M13.7013 26C10.9399 26 8.65396 23.7425 9.16503 21.0288C9.48545 19.3274 9.97032 17.6594 10.6147 16.0502C11.878 12.8958 13.7295 10.0295 16.0637 7.61523C18.3979 5.20091 21.169 3.28576 24.2187 1.97914C25.7244 1.33407 27.2834 0.843552 28.8733 0.51221C31.5767 -0.0511681 33.8382 2.23859 33.8382 5.00001V21C33.8382 23.7614 31.5996 26 28.8382 26H13.7013Z" fill="#3DD9EB"/>
</svg>
